<?xml version="1.0" encoding="utf-8"?>
<!-- Generator: Adobe Illustrator 26.0.0, SVG Export Plug-In . SVG Version: 6.00 Build 0)  -->
<svg version="1.1" id="Capa_1" xmlns="http://www.w3.org/2000/svg" xmlns:xlink="http://www.w3.org/1999/xlink" x="0px" y="0px"
	 viewBox="0 0 284 66" style="enable-background:new 0 0 284 66;" xml:space="preserve">
<style type="text/css">
	.st0{fill:#B6C546;}
	.st1{fill:#496939;}
</style>
<g>
	<g>
		<path class="st0" d="M159.8,30.1c1.8,0.4,3.4,1,4.7,1.7c1.3,0.8,2.3,1.6,3,2.5c0.7,0.9,1.2,1.9,1.5,3c0.3,1.1,0.5,2.2,0.5,3.3
			c0,3.4-1.3,6.2-3.9,8.4c-2.6,2.1-6.3,3.2-11.3,3.2c-2.5,0-4.8-0.3-6.7-0.8c-2-0.6-3.6-1.3-4.9-2.3c-1.3-0.9-2.2-1.9-2.9-3
			c-0.6-1.1-0.9-2.1-0.9-3.2c0-1,0.3-1.9,1-2.5c0.7-0.6,1.5-1,2.5-1c0.9,0,1.5,0.2,2.1,0.6c0.5,0.4,1.1,1.1,1.8,1.9
			c0.5,0.6,0.9,1.2,1.3,1.6c0.4,0.4,0.9,0.8,1.5,1.2c0.6,0.4,1.3,0.7,2.2,0.9c0.9,0.2,1.9,0.4,3,0.4c2.1,0,3.7-0.5,4.9-1.4
			c1.2-1,1.8-2.1,1.8-3.4c0-0.9-0.3-1.6-0.8-2.3c-0.5-0.7-1.5-1.2-2.8-1.5L148,35c-1.8-0.5-3.3-1.1-4.5-1.8
			c-1.2-0.7-2.1-1.5-2.8-2.4c-0.6-0.9-1.1-1.8-1.3-2.8c-0.2-1-0.4-2-0.4-3.1c0-2,0.4-3.7,1.3-5.1c0.8-1.4,2-2.6,3.4-3.5
			c1.4-0.9,3-1.6,4.7-2c1.7-0.4,3.5-0.6,5.4-0.6c1.6,0,3.3,0.2,5,0.6c1.7,0.4,3.3,1,4.7,1.8c1.4,0.8,2.5,1.7,3.4,2.8
			c0.8,1.1,1.3,2.2,1.3,3.4c0,1-0.4,1.8-1.1,2.4c-0.8,0.6-1.7,0.9-2.7,0.9c-0.7,0-1.3-0.2-1.8-0.5c-0.5-0.3-1-0.8-1.6-1.6
			c-1-1.1-2-1.9-3-2.5c-1-0.6-2.6-0.9-4.6-0.9c-1.9,0-3.4,0.4-4.5,1.2c-1.1,0.8-1.6,1.9-1.6,3.1c0,1.1,0.5,2,1.5,2.5
			c1,0.6,2.4,1,4.2,1.5L159.8,30.1z"/>
		<path class="st0" d="M199.5,44.2c0,0.9,0.1,1.6,0.2,2.1c0.1,0.5,0.2,1.1,0.4,1.6c0.2,0.5,0.3,1,0.3,1.3c0,0.8-0.3,1.5-1,2
			c-0.7,0.5-1.5,0.8-2.4,0.8c-1.5,0-2.6-0.4-3.3-1.2c-0.7-0.8-1.1-1.9-1.1-3.1c-1.4,1.5-2.9,2.6-4.6,3.3c-1.7,0.7-3.5,1-5.6,1
			c-2.3,0-4.2-0.7-5.9-2.1c-1.7-1.4-2.5-3.2-2.5-5.5c0-1.5,0.3-2.8,0.8-3.8c0.5-1,1.3-1.9,2.2-2.5c0.9-0.6,2-1.1,3.3-1.5
			c1.2-0.4,2.6-0.6,4.2-0.8l4.6-0.5c1.1-0.1,1.9-0.4,2.4-0.7c0.5-0.4,0.8-1,0.8-2c0-1-0.4-1.8-1.3-2.3c-0.9-0.5-2-0.8-3.4-0.8
			c-1.4,0-2.5,0.2-3.3,0.7c-0.8,0.4-1.6,1.1-2.5,1.8c-0.5,0.5-1,0.9-1.4,1.2c-0.4,0.3-0.9,0.4-1.4,0.4c-0.9,0-1.7-0.3-2.3-0.8
			c-0.6-0.6-0.9-1.2-0.9-2c0-0.8,0.3-1.5,0.8-2.3c0.5-0.8,1.3-1.5,2.3-2.2c1-0.7,2.3-1.2,3.8-1.6c1.5-0.4,3.1-0.6,5-0.6
			c3.8,0,6.7,0.6,8.9,1.9c2.2,1.3,3.3,3.2,3.3,5.8V44.2z M192,38.8c-0.3,0.3-0.8,0.5-1.3,0.7c-0.5,0.2-1.2,0.3-1.9,0.5h-0.1
			l-2.7,0.4c-1.6,0.2-2.8,0.6-3.6,1.2c-0.8,0.6-1.2,1.4-1.2,2.5c0,0.9,0.4,1.6,1.1,2.2c0.7,0.6,1.8,0.9,3,0.9c2,0,3.6-0.5,4.8-1.6
			c1.2-1.1,1.8-2.3,1.8-3.8V38.8z"/>
		<path class="st0" d="M206.3,17.6c0-1.2,0.3-2.1,1-2.8c0.7-0.6,1.6-1,2.7-1c1.2,0,2.1,0.3,2.7,1c0.7,0.6,1,1.6,1,2.8v30.7
			c0,1.2-0.3,2.1-1,2.8c-0.7,0.6-1.6,1-2.7,1c-1.2,0-2.1-0.3-2.7-1s-1-1.6-1-2.8V17.6z"/>
		<path class="st0" d="M245.5,48.4c0,1.2-0.3,2.1-0.8,2.7c-0.6,0.7-1.4,1-2.5,1c-1.1,0-2-0.3-2.5-1c-0.6-0.7-0.8-1.6-0.8-2.7v-1
			h-0.1c-1.1,1.5-2.4,2.7-3.9,3.5c-1.5,0.8-3.2,1.2-5.2,1.2c-1.2,0-2.3-0.2-3.5-0.5c-1.1-0.3-2.1-0.9-3-1.6
			c-0.9-0.8-1.6-1.8-2.1-3.1c-0.5-1.3-0.8-2.8-0.8-4.6V27.7c0-1.1,0.3-2,0.8-2.7c0.6-0.7,1.5-1,2.9-1c1.4,0,2.3,0.3,2.9,1
			c0.6,0.7,0.8,1.6,0.8,2.7v13.1c0,1.6,0.4,2.8,1.2,3.8c0.8,0.9,2,1.4,3.5,1.4c1.4,0,2.7-0.5,3.9-1.6c1.2-1.1,1.8-2.5,1.8-4.3V27.7
			c0-1.1,0.3-2,0.8-2.7c0.6-0.7,1.5-1,2.9-1c1.4,0,2.3,0.3,2.9,1c0.6,0.7,0.8,1.6,0.8,2.7V48.4z"/>
		<path class="st0" d="M276.8,48.6c0,2.4-1.1,3.5-3.4,3.5c-2.3,0-3.4-1.2-3.4-3.5v-1.2h-0.1c-0.6,1.5-1.6,2.7-3,3.5
			c-1.4,0.8-3,1.2-4.9,1.2c-1.6,0-3.1-0.3-4.5-0.9c-1.4-0.6-2.6-1.5-3.7-2.7c-1.1-1.2-1.9-2.7-2.6-4.5c-0.6-1.8-0.9-3.9-0.9-6.2
			c0-1.8,0.2-3.6,0.7-5.2c0.5-1.7,1.2-3.1,2.1-4.4c1-1.3,2.2-2.3,3.6-3.1c1.4-0.8,3.1-1.1,5-1.1c1.6,0,3.1,0.3,4.4,1
			c1.3,0.6,2.3,1.6,3,2.8h0.1V17.6c0-1.2,0.3-2.1,1-2.8c0.7-0.6,1.6-1,2.7-1c1.2,0,2.1,0.3,2.7,1c0.7,0.6,1,1.6,1,2.8V48.6z
			 M259.3,43.9c1,1.5,2.5,2.3,4.4,2.4c2,0,3.6-0.8,4.5-2.3c1-1.5,1.5-3.5,1.5-5.8c0-1-0.1-2-0.3-3s-0.5-1.9-1-2.7
			c-0.5-0.8-1.1-1.4-1.9-1.9c-0.8-0.5-1.7-0.7-2.8-0.7c-1.1,0-2.1,0.3-2.9,0.8c-0.8,0.5-1.4,1.2-1.8,2c-0.4,0.8-0.8,1.7-0.9,2.7
			c-0.2,1-0.3,1.9-0.3,2.9C257.8,40.4,258.3,42.4,259.3,43.9z"/>
	</g>
	<path class="st1" d="M20.5,14.2c7.3,0,14.4,2.6,14.4,11.8s-7.1,11.8-14.4,11.8h-6.1v12c0,2.1-1.5,2-3.7,2c-2.1,0-3.6,0.1-3.6-2
		V17.1c0-2.1,0.8-2.8,2.8-2.8H20.5z M14.5,20.6v10.8h6.1c3.8,0,7.2-1.4,7.2-5.4c0-4-3.4-5.4-7.2-5.4H14.5z M42.9,24.4
		c2,0,3.5-0.1,3.5,1.8v14.9c0,3.9,2.3,4.4,5.6,4.4c3.5,0,6.1-0.8,6.1-4.9V26.3c0-2,1.4-1.8,3.5-1.8c2,0,3.5-0.1,3.5,1.8V50
		c0,2-1.4,1.8-3.5,1.8c-2,0-3.5,0.1-3.5-1.8v-0.4c-1.5,2.6-4.9,2.5-8.3,2.5c-6.5,0-10.3-3.5-10.3-12.2V26.3
		C39.4,24.3,40.8,24.4,42.9,24.4z M71.3,15.6c0-2,1.5-1.2,3.5-1.2c2,0,3.4-0.8,3.4,1.2V50c0,2-1.5,1.8-3.5,1.8c-2,0-3.4,0.1-3.4-1.8
		V15.6z M121.8,24.5c7.9,0,14,5.8,14,13.7c0,7.9-6.1,13.7-14,13.7c-7.9,0-14-5.8-14-13.7C107.8,30.2,113.9,24.5,121.8,24.5z
		 M121.8,30.8c-4.3,0-7.3,3.3-7.3,7.4s3,7.4,7.3,7.4c4.3,0,7.3-3.3,7.3-7.4S126.1,30.8,121.8,30.8z"/>
	<g>
		<path class="st1" d="M93.1,25.3c5.1,0,11.5,2.3,10.3,5.4c-0.5,1.3-0.6,2.5-2.2,2.6c-1.5,0.1-3.3-2.8-7.6-2.8
			c-2.4,0-3.9,0.7-3.9,2.2c0,1.6,1.5,2,3.6,2.5l2.8,0.7c3.8,0.9,7.7,2.6,7.7,7.5c0,5.7-4.5,8.4-9.6,8.4c-6.1,0-11.2-2.8-11.2-6.3
			c0-1.5,0.6-2.2,2.4-2.7c2.5-0.7,3.5,4.1,8.5,4.1c2.4,0,3.9-1.1,3.9-2.6c0-1.8-1.5-2.1-3.9-2.7l-4-1c-3.9-1-7-2.7-7-7.4
			C82.9,27.4,88.4,25.3,93.1,25.3z"/>
	</g>
</g>
</svg>
